<svg class="main-svg" xmlns="http://www.w3.org/2000/svg" xmlns:xlink="http://www.w3.org/1999/xlink" width="960" height="525" style="" viewBox="0 0 960 525"><rect x="0" y="0" width="960" height="525" style="fill: rgb(255, 255, 255); fill-opacity: 1;"/><defs id="defs-df6d6e"><g class="clips"><clipPath id="clipdf6d6exyplot" class="plotclip"><rect width="838" height="383"/></clipPath><clipPath class="axesclip" id="clipdf6d6ex"><rect x="82" y="0" width="838" height="525"/></clipPath><clipPath class="axesclip" id="clipdf6d6ey"><rect x="0" y="69" width="960" height="383"/></clipPath><clipPath class="axesclip" id="clipdf6d6exy"><rect x="82" y="69" width="838" height="383"/></clipPath></g><g class="gradients"/><g class="patterns"/></defs><g class="bglayer"><rect class="bg" x="82" y="69" width="838" height="383" style="fill: rgb(229, 236, 246); fill-opacity: 1; stroke-width: 0;"/></g><g class="layer-below"><g class="imagelayer"/><g class="shapelayer"/></g><g class="cartesianlayer"><g class="subplot xy"><g class="layer-subplot"><g class="shapelayer"/><g class="imagelayer"/></g><g class="minor-gridlayer"><g class="x"/><g class="y"/></g><g class="gridlayer"><g class="x"><path class="xgrid crisp" transform="translate(175.11,0)" d="M0,69v383" style="stroke: rgb(255, 255, 255); stroke-opacity: 1; stroke-width: 1px;"/><path class="xgrid crisp" transform="translate(268.22,0)" d="M0,69v383" style="stroke: rgb(255, 255, 255); stroke-opacity: 1; stroke-width: 1px;"/><path class="xgrid crisp" transform="translate(361.33,0)" d="M0,69v383" style="stroke: rgb(255, 255, 255); stroke-opacity: 1; stroke-width: 1px;"/><path class="xgrid crisp" transform="translate(454.44,0)" d="M0,69v383" style="stroke: rgb(255, 255, 255); stroke-opacity: 1; stroke-width: 1px;"/><path class="xgrid crisp" transform="translate(547.56,0)" d="M0,69v383" style="stroke: rgb(255, 255, 255); stroke-opacity: 1; stroke-width: 1px;"/><path class="xgrid crisp" transform="translate(640.67,0)" d="M0,69v383" style="stroke: rgb(255, 255, 255); stroke-opacity: 1; stroke-width: 1px;"/><path class="xgrid crisp" transform="translate(733.78,0)" d="M0,69v383" style="stroke: rgb(255, 255, 255); stroke-opacity: 1; stroke-width: 1px;"/><path class="xgrid crisp" transform="translate(826.89,0)" d="M0,69v383" style="stroke: rgb(255, 255, 255); stroke-opacity: 1; stroke-width: 1px;"/></g><g class="y"><path class="ygrid crisp" transform="translate(0,401.19)" d="M82,0h838" style="stroke: rgb(255, 255, 255); stroke-opacity: 1; stroke-width: 1px;"/><path class="ygrid crisp" transform="translate(0,366.41)" d="M82,0h838" style="stroke: rgb(255, 255, 255); stroke-opacity: 1; stroke-width: 1px;"/><path class="ygrid crisp" transform="translate(0,331.63)" d="M82,0h838" style="stroke: rgb(255, 255, 255); stroke-opacity: 1; stroke-width: 1px;"/><path class="ygrid crisp" transform="translate(0,296.85)" d="M82,0h838" style="stroke: rgb(255, 255, 255); stroke-opacity: 1; stroke-width: 1px;"/><path class="ygrid crisp" transform="translate(0,262.06)" d="M82,0h838" style="stroke: rgb(255, 255, 255); stroke-opacity: 1; stroke-width: 1px;"/><path class="ygrid crisp" transform="translate(0,227.28)" d="M82,0h838" style="stroke: rgb(255, 255, 255); stroke-opacity: 1; stroke-width: 1px;"/><path class="ygrid crisp" transform="translate(0,192.5)" d="M82,0h838" style="stroke: rgb(255, 255, 255); stroke-opacity: 1; stroke-width: 1px;"/><path class="ygrid crisp" transform="translate(0,157.72)" d="M82,0h838" style="stroke: rgb(255, 255, 255); stroke-opacity: 1; stroke-width: 1px;"/><path class="ygrid crisp" transform="translate(0,122.93)" d="M82,0h838" style="stroke: rgb(255, 255, 255); stroke-opacity: 1; stroke-width: 1px;"/><path class="ygrid crisp" transform="translate(0,88.15)" d="M82,0h838" style="stroke: rgb(255, 255, 255); stroke-opacity: 1; stroke-width: 1px;"/></g></g><g class="zerolinelayer"><path class="yzl zl crisp" transform="translate(0,435.98)" d="M82,0h838" style="stroke: rgb(255, 255, 255); stroke-opacity: 1; stroke-width: 2px;"/></g><path class="xlines-below"/><path class="ylines-below"/><g class="overlines-below"/><g class="xaxislayer-below"/><g class="yaxislayer-below"/><g class="overaxes-below"/><g class="plot" transform="translate(82,69)" clip-path="url(#clipdf6d6exyplot)"><g class="scatterlayer mlayer"><g class="trace scatter trace8d3059" style="stroke-miterlimit: 2; opacity: 1;"><g class="fills"/><g class="errorbars"/><g class="lines"><path class="js-line" d="M1.02,105.1L4.66,91.78L9.31,83.34L13.97,94.74L18.62,113.84L23.28,137.05L27.93,139.23L32.59,122.4L37.24,109.81L41.9,115.76L46.56,126.38L51.21,145.83L55.87,185.95L60.52,205.18L65.18,208.78L69.83,195.42L74.49,178.29L79.14,160L83.8,147.67L88.46,133.84L93.11,129.34L97.77,128.35L102.42,129.04L111.73,131.27L116.39,130.41L121.04,126.43L125.7,123.47L130.36,123.77L135.01,125.48L139.67,127.84L144.32,134.09L153.63,134.78L158.29,126.6L172.26,96.41L176.91,90.03L181.57,86.43L186.22,81.38L190.88,77.95L195.53,75.89L200.19,74.22L204.84,73.62L209.5,74.14L214.16,75.42L218.81,77.56L223.47,81.42L232.78,85.96L237.43,87.41L242.09,88.06L246.74,86.99L260.71,79.32L265.37,75.34L270.02,70.2L274.68,61.63L283.99,52.64L288.64,46.99L297.96,35.81L302.61,31.74L311.92,25.66L316.58,23.35L325.89,20.22L330.54,19.28L339.86,19.71L344.51,20.48L353.82,22.62L358.48,24.5L377.1,37.44L381.76,41.85L395.72,56.19L400.38,60.13L405.03,63.99L409.69,69.34L414.34,74.09L419,77.56L446.93,96.32L451.59,98.63L474.87,107.54L479.52,110.03L488.83,113.24L493.49,114.56L521.42,125.01L526.08,127.11L544.7,137.43L549.36,140.86L554.01,144.5L558.67,147.11L563.32,150.02L567.98,154.39L595.91,179.23L600.57,184.37L628.5,213.58L633.16,219.1L647.12,237.17L651.78,244.37L665.74,260.86L670.4,266.81L679.71,277L684.37,282.95L693.68,293.45L698.33,298.54L702.99,303.17L707.64,306.38L721.61,319.4L726.27,322.44L740.23,332.33L744.89,336.01L754.2,342.31L758.86,344.75L777.48,352.5L782.13,354.21L796.1,358.8L800.76,359.91L814.72,362.14L819.38,362.61L833.53,363.85" style="vector-effect: none; fill: none; stroke: rgb(99, 110, 250); stroke-opacity: 1; stroke-width: 2px; opacity: 1;"/></g><g class="points"/><g class="text"/></g><g class="trace scatter trace1ddd18" style="stroke-miterlimit: 2; opacity: 1;"><g class="fills"/><g class="errorbars"/><g class="lines"><path class="js-line" d="M1.02,275.55L4.66,269.03L9.31,263.57L13.97,265.36L18.62,270.29L23.28,277.16L27.93,276.04L37.24,259.82L41.9,260.12L46.56,262.55L51.21,269.07L55.87,285.26L60.52,292.54L65.18,292.82L69.83,285.07L79.14,264.57L83.8,256.56L88.46,247.57L93.11,243.21L97.77,240.62L102.42,238.92L111.73,236.03L116.39,233.5L125.7,225.35L130.36,223.42L139.67,221.67L144.32,223.44L153.63,219.84L158.29,212.57L172.26,186.13L176.91,179.46L181.57,174.59L186.22,168.64L195.53,159.78L200.19,156.05L209.5,150.9L214.16,149.32L218.81,148.41L223.47,148.84L232.78,147.43L237.43,146.14L242.09,144.23L246.74,140.94L260.71,127.26L265.37,121.41L270.02,114.51L274.68,104.57L283.99,91.38L288.64,83.65L297.96,68L302.61,61.42L316.58,44.82L321.23,40.26L330.54,31.95L335.2,28.81L349.17,21.97L353.82,20.23L358.48,19.15L363.13,19.34L367.79,20.33L372.44,20.18L377.1,20.84L381.76,22.65L395.72,29.75L400.38,31.37L405.03,32.95L409.69,36.27L414.34,39.01L419,40.38L446.93,47.45L451.59,47.85L470.21,46.71L474.87,47.18L484.18,48.3L488.83,47.6L498.14,46.96L502.8,47.04L526.08,48.41L530.73,49.59L540.04,53.12L544.7,54.14L554.01,59.91L558.67,61.61L563.32,63.77L567.98,68.03L591.26,87.79L595.91,93.18L609.88,110.09L614.53,115.5L623.84,127.26L628.5,133.95L642.47,156.49L647.12,165.28L651.78,175.4L656.43,182.95L661.09,189.51L665.74,198.4L670.4,206.98L675.06,213.89L684.37,230.58L689.02,239.08L702.99,261.18L707.64,265.98L721.61,286.44L726.27,291.2L735.58,301.32L740.23,307.13L749.54,318.86L754.2,323.72L763.51,331.41L768.17,334.74L791.44,349.57L796.1,351.99L805.41,355.65L810.07,356.87L824.03,359.55L828.69,360.33L833.53,361.03" style="vector-effect: none; fill: none; stroke: rgb(239, 85, 59); stroke-opacity: 1; stroke-width: 2px; opacity: 1;"/></g><g class="points"/><g class="text"/></g></g></g><g class="overplot"/><path class="xlines-above crisp" d="M0,0" style="fill: none;"/><path class="ylines-above crisp" d="M0,0" style="fill: none;"/><g class="overlines-above"/><g class="xaxislayer-above"><g class="xtick"><text text-anchor="middle" x="0" y="475" transform="translate(82,0)" style="font-family: 'Open Sans', verdana, arial, sans-serif; font-size: 22px; fill: rgb(42, 63, 95); fill-opacity: 1; white-space: pre; opacity: 1;">200</text></g><g class="xtick"><text text-anchor="middle" x="0" y="475" style="font-family: 'Open Sans', verdana, arial, sans-serif; font-size: 22px; fill: rgb(42, 63, 95); fill-opacity: 1; white-space: pre; opacity: 1;" transform="translate(175.11,0)">300</text></g><g class="xtick"><text text-anchor="middle" x="0" y="475" style="font-family: 'Open Sans', verdana, arial, sans-serif; font-size: 22px; fill: rgb(42, 63, 95); fill-opacity: 1; white-space: pre; opacity: 1;" transform="translate(268.22,0)">400</text></g><g class="xtick"><text text-anchor="middle" x="0" y="475" style="font-family: 'Open Sans', verdana, arial, sans-serif; font-size: 22px; fill: rgb(42, 63, 95); fill-opacity: 1; white-space: pre; opacity: 1;" transform="translate(361.33,0)">500</text></g><g class="xtick"><text text-anchor="middle" x="0" y="475" style="font-family: 'Open Sans', verdana, arial, sans-serif; font-size: 22px; fill: rgb(42, 63, 95); fill-opacity: 1; white-space: pre; opacity: 1;" transform="translate(454.44,0)">600</text></g><g class="xtick"><text text-anchor="middle" x="0" y="475" style="font-family: 'Open Sans', verdana, arial, sans-serif; font-size: 22px; fill: rgb(42, 63, 95); fill-opacity: 1; white-space: pre; opacity: 1;" transform="translate(547.56,0)">700</text></g><g class="xtick"><text text-anchor="middle" x="0" y="475" style="font-family: 'Open Sans', verdana, arial, sans-serif; font-size: 22px; fill: rgb(42, 63, 95); fill-opacity: 1; white-space: pre; opacity: 1;" transform="translate(640.67,0)">800</text></g><g class="xtick"><text text-anchor="middle" x="0" y="475" style="font-family: 'Open Sans', verdana, arial, sans-serif; font-size: 22px; fill: rgb(42, 63, 95); fill-opacity: 1; white-space: pre; opacity: 1;" transform="translate(733.78,0)">900</text></g><g class="xtick"><text text-anchor="middle" x="0" y="475" style="font-family: 'Open Sans', verdana, arial, sans-serif; font-size: 22px; fill: rgb(42, 63, 95); fill-opacity: 1; white-space: pre; opacity: 1;" transform="translate(826.89,0)">1000</text></g><g class="xtick"><text text-anchor="middle" x="0" y="475" style="font-family: 'Open Sans', verdana, arial, sans-serif; font-size: 22px; fill: rgb(42, 63, 95); fill-opacity: 1; white-space: pre; opacity: 1;" transform="translate(920,0)">1100</text></g></g><g class="yaxislayer-above"><g class="ytick"><text text-anchor="end" x="81" y="7.699999999999999" transform="translate(0,435.98)" style="font-family: 'Open Sans', verdana, arial, sans-serif; font-size: 22px; fill: rgb(42, 63, 95); fill-opacity: 1; white-space: pre; opacity: 1;">0</text></g><g class="ytick"><text text-anchor="end" x="81" y="7.699999999999999" style="font-family: 'Open Sans', verdana, arial, sans-serif; font-size: 22px; fill: rgb(42, 63, 95); fill-opacity: 1; white-space: pre; opacity: 1;" transform="translate(0,401.19)">0.1</text></g><g class="ytick"><text text-anchor="end" x="81" y="7.699999999999999" style="font-family: 'Open Sans', verdana, arial, sans-serif; font-size: 22px; fill: rgb(42, 63, 95); fill-opacity: 1; white-space: pre; opacity: 1;" transform="translate(0,366.41)">0.2</text></g><g class="ytick"><text text-anchor="end" x="81" y="7.699999999999999" style="font-family: 'Open Sans', verdana, arial, sans-serif; font-size: 22px; fill: rgb(42, 63, 95); fill-opacity: 1; white-space: pre; opacity: 1;" transform="translate(0,331.63)">0.3</text></g><g class="ytick"><text text-anchor="end" x="81" y="7.699999999999999" style="font-family: 'Open Sans', verdana, arial, sans-serif; font-size: 22px; fill: rgb(42, 63, 95); fill-opacity: 1; white-space: pre; opacity: 1;" transform="translate(0,296.85)">0.4</text></g><g class="ytick"><text text-anchor="end" x="81" y="7.699999999999999" style="font-family: 'Open Sans', verdana, arial, sans-serif; font-size: 22px; fill: rgb(42, 63, 95); fill-opacity: 1; white-space: pre; opacity: 1;" transform="translate(0,262.06)">0.5</text></g><g class="ytick"><text text-anchor="end" x="81" y="7.699999999999999" style="font-family: 'Open Sans', verdana, arial, sans-serif; font-size: 22px; fill: rgb(42, 63, 95); fill-opacity: 1; white-space: pre; opacity: 1;" transform="translate(0,227.28)">0.6</text></g><g class="ytick"><text text-anchor="end" x="81" y="7.699999999999999" style="font-family: 'Open Sans', verdana, arial, sans-serif; font-size: 22px; fill: rgb(42, 63, 95); fill-opacity: 1; white-space: pre; opacity: 1;" transform="translate(0,192.5)">0.7</text></g><g class="ytick"><text text-anchor="end" x="81" y="7.699999999999999" style="font-family: 'Open Sans', verdana, arial, sans-serif; font-size: 22px; fill: rgb(42, 63, 95); fill-opacity: 1; white-space: pre; opacity: 1;" transform="translate(0,157.72)">0.8</text></g><g class="ytick"><text text-anchor="end" x="81" y="7.699999999999999" style="font-family: 'Open Sans', verdana, arial, sans-serif; font-size: 22px; fill: rgb(42, 63, 95); fill-opacity: 1; white-space: pre; opacity: 1;" transform="translate(0,122.93)">0.9</text></g><g class="ytick"><text text-anchor="end" x="81" y="7.699999999999999" style="font-family: 'Open Sans', verdana, arial, sans-serif; font-size: 22px; fill: rgb(42, 63, 95); fill-opacity: 1; white-space: pre; opacity: 1;" transform="translate(0,88.15)">1</text></g></g><g class="overaxes-above"/></g></g><g class="polarlayer"/><g class="smithlayer"/><g class="ternarylayer"/><g class="geolayer"/><g class="funnelarealayer"/><g class="pielayer"/><g class="iciclelayer"/><g class="treemaplayer"/><g class="sunburstlayer"/><g class="glimages"/><defs id="topdefs-df6d6e"><g class="clips"/><clipPath id="legenddf6d6e"><rect width="541" height="42" x="0" y="0"/></clipPath></defs><g class="layer-above"><g class="imagelayer"/><g class="shapelayer"/></g><g class="infolayer"><g class="legend" pointer-events="all" transform="translate(90.38,11.550000000000033)"><rect class="bg" shape-rendering="crispEdges" width="541" height="42" x="0" y="0" style="stroke: rgb(68, 68, 68); stroke-opacity: 1; fill: rgb(255, 255, 255); fill-opacity: 1; stroke-width: 0px;"/><g class="scrollbox" transform="" clip-path="url(#legenddf6d6e)"><g class="groups" transform=""><g class="traces" transform="translate(0,20.8)" style="opacity: 1;"><text class="legendtext" text-anchor="start" x="40" y="8.58" style="font-family: 'Open Sans', verdana, arial, sans-serif; font-size: 22px; fill: rgb(42, 63, 95); fill-opacity: 1; white-space: pre;">Quantum Efficiency</text><g class="layers" style="opacity: 1;"><g class="legendfill"/><g class="legendlines"><path class="js-line" d="M5,0h30" style="fill: none; stroke: rgb(99, 110, 250); stroke-opacity: 1; stroke-width: 2px;"/></g><g class="legendsymbols"><g class="legendpoints"/></g></g><rect class="legendtoggle" x="0" y="-15.8" width="257.03125" height="31.6" style="fill: rgb(0, 0, 0); fill-opacity: 0;"/></g></g><g class="groups" transform="translate(259.53125,0)"><g class="traces" transform="translate(0,20.8)" style="opacity: 1;"><text class="legendtext" text-anchor="start" x="40" y="8.58" style="font-family: 'Open Sans', verdana, arial, sans-serif; font-size: 22px; fill: rgb(42, 63, 95); fill-opacity: 1; white-space: pre;">Spectral Responsivity</text><g class="layers" style="opacity: 1;"><g class="legendfill"/><g class="legendlines"><path class="js-line" d="M5,0h30" style="fill: none; stroke: rgb(239, 85, 59); stroke-opacity: 1; stroke-width: 2px;"/></g><g class="legendsymbols"><g class="legendpoints"/></g></g><rect class="legendtoggle" x="0" y="-15.8" width="278.9166717529297" height="31.6" style="fill: rgb(0, 0, 0); fill-opacity: 0;"/></g></g></g><rect class="scrollbar" rx="20" ry="3" width="0" height="0" x="0" y="0" style="fill: rgb(128, 139, 164); fill-opacity: 1;"/></g><g class="g-gtitle"/><g class="g-xtitle"><text class="xtitle" x="501" y="512.3666679382325" text-anchor="middle" style="font-family: 'Open Sans', verdana, arial, sans-serif; font-size: 26px; fill: rgb(42, 63, 95); opacity: 1; font-weight: normal; white-space: pre;">Wavelength (nm)</text></g><g class="g-ytitle" transform="translate(13.6796875,0)"><text class="ytitle" transform="rotate(-90,12.320507812499997,260.5)" x="12.320507812499997" y="260.5" text-anchor="middle" style="font-family: 'Open Sans', verdana, arial, sans-serif; font-size: 26px; fill: rgb(42, 63, 95); opacity: 1; font-weight: normal; white-space: pre;">Normalized Values</text></g></g></svg>